<svg xmlns="http://www.w3.org/2000/svg" width="484" height="240" viewBox="0 0 484 240">
  <g transform="translate(0, 0)">
  <rect width="240" height="240" fill="#090415"/>
  <rect x="8" y="8" width="224" height="224" rx="8" fill="#1F1F28"/>
  <rect x="16" y="16" width="208" height="36" rx="6" fill="#020007"/>
  <text x="28" y="40" font-family="system-ui, sans-serif" font-size="12" font-weight="600" fill="#E6E1F7">Dank Violet (dark)</text>
  <rect x="16" y="60" width="208" height="72" rx="6" fill="#15102c"/>
  <text x="28" y="82" font-family="system-ui, sans-serif" font-size="11" fill="#E6E1F7">Surface Text</text>
  <text x="28" y="98" font-family="system-ui, sans-serif" font-size="10" fill="#4E4570">Outline color</text>
  <rect x="28" y="108" width="72" height="18" rx="9" fill="#c7b3f3"/>
  <text x="64" y="120" font-family="system-ui, sans-serif" font-size="9" text-anchor="middle" fill="#020007">Primary</text>
  <rect x="108" y="108" width="48" height="18" rx="4" fill="#c7b3f3"/>
  <rect x="16" y="140" width="100" height="52" rx="6" fill="#020007"/>
  <rect x="24" y="148" width="84" height="36" rx="4" fill="#090415"/>
  <text x="66" y="170" font-family="system-ui, sans-serif" font-size="9" text-anchor="middle" fill="#E6E1F7">Background</text>
  <rect x="124" y="140" width="100" height="52" rx="6" fill="#020007"/>
  <circle cx="148" cy="166" r="9" fill="#E53935"/>
  <circle cx="172" cy="166" r="9" fill="#F57C00"/>
  <circle cx="196" cy="166" r="9" fill="#c7b3f3"/>
  <rect x="16" y="200" width="208" height="24" rx="4" fill="#7D57D2" opacity="0.15"/>
  <text x="120" y="216" font-family="system-ui, sans-serif" font-size="9" text-anchor="middle" fill="#E6E1F7">Surface Tint Overlay</text>
</g>
  <rect x="240" y="0" width="4" height="240" fill="#888"/>
  <g transform="translate(244, 0)">
  <rect width="240" height="240" fill="#ffffff"/>
  <rect x="8" y="8" width="224" height="224" rx="8" fill="#f6f4ff"/>
  <rect x="16" y="16" width="208" height="36" rx="6" fill="#f0ecff"/>
  <text x="28" y="40" font-family="system-ui, sans-serif" font-size="12" font-weight="600" fill="#020007">Dank Violet (light)</text>
  <rect x="16" y="60" width="208" height="72" rx="6" fill="#e2dbff"/>
  <text x="28" y="82" font-family="system-ui, sans-serif" font-size="11" fill="#020007">Surface Text</text>
  <text x="28" y="98" font-family="system-ui, sans-serif" font-size="10" fill="#b8a9e6">Outline color</text>
  <rect x="28" y="108" width="72" height="18" rx="9" fill="#c7b3f3"/>
  <text x="64" y="120" font-family="system-ui, sans-serif" font-size="9" text-anchor="middle" fill="#020007">Primary</text>
  <rect x="108" y="108" width="48" height="18" rx="4" fill="#c7b3f3"/>
  <rect x="16" y="140" width="100" height="52" rx="6" fill="#f0ecff"/>
  <rect x="24" y="148" width="84" height="36" rx="4" fill="#ffffff"/>
  <text x="66" y="170" font-family="system-ui, sans-serif" font-size="9" text-anchor="middle" fill="#020007">Background</text>
  <rect x="124" y="140" width="100" height="52" rx="6" fill="#f0ecff"/>
  <circle cx="148" cy="166" r="9" fill="#b00020"/>
  <circle cx="172" cy="166" r="9" fill="#9c5300"/>
  <circle cx="196" cy="166" r="9" fill="#7D57D2"/>
  <rect x="16" y="200" width="208" height="24" rx="4" fill="#7D57D2" opacity="0.15"/>
  <text x="120" y="216" font-family="system-ui, sans-serif" font-size="9" text-anchor="middle" fill="#020007">Surface Tint Overlay</text>
</g>
</svg>